# xmcd
#
# Track frame offsets:
#	150
#	18213
#	38771
#	57378
#	76266
#	103015
#	121965
#	140969
#	155991
#	174441
#
# Disc length: 2587 seconds
#
# Revision: 1
# Processed by: cddbd v1.5.1PL2 Copyright (c) Steve Scherf et al.
# Submitted via: audiograbber 1.83.01
#
DISCID=840a190a
DTITLE=Various Artist - Vamos! Bachata
DYEAR=2004
DGENRE=Salsa
TTITLE0=Javier Vega - Tu Eres Ajena
TTITLE1=Javier Vega - Arrancame La Vida
TTITLE2=Alejandro - Obsesion
TTITLE3=Lucho - Tu Vas A Volar
TTITLE4=Alejandro - Pegame Tu Vicio
TTITLE5=Javier Vega - Cuando El Amor Se Daña
TTITLE6=Alejandro - Llora Alma Mia
TTITLE7=Javier Vega - Spanish Girl
TTITLE8=Javier And Lucy - Dos Locos
TTITLE9=Javier Vega - Adios
EXTD=
EXTT0=
EXTT1=
EXTT2=
EXTT3=
EXTT4=
EXTT5=
EXTT6=
EXTT7=
EXTT8=
EXTT9=
PLAYORDER=
